<?xml version="1.0" standalone="no"?>
<!DOCTYPE svg PUBLIC "-//W3C//DTD SVG 20010904//EN"
 "http://www.w3.org/TR/2001/REC-SVG-20010904/DTD/svg10.dtd">
<svg version="1.0" xmlns="http://www.w3.org/2000/svg"
 width="240.000000pt" height="240.000000pt" viewBox="0 0 240.000000 240.000000"
 preserveAspectRatio="xMidYMid meet">
<metadata>
Created by potrace 1.11, written by Peter Selinger 2001-2013
</metadata>
<g transform="translate(0.000000,240.000000) scale(0.100000,-0.100000)"
fill="#000000" stroke="none">
<path d="M943 2230 c-61 -27 -97 -81 -97 -144 0 -94 28 -122 187 -191 45 -20
93 -44 106 -54 20 -15 22 -21 12 -40 -12 -21 -12 -21 -36 -3 -13 11 -64 36
-112 57 -110 47 -162 81 -186 123 -20 35 -27 98 -14 147 l7 30 -24 -28 c-48
-52 -42 -147 12 -205 27 -29 27 -29 7 -44 -15 -11 -26 -13 -45 -6 -14 6 -55
10 -92 10 -139 -1 -258 -108 -258 -233 0 -27 -24 -46 -35 -28 -12 18 -2 84 18
117 27 46 17 49 -26 7 -24 -23 -38 -48 -42 -73 -4 -20 -8 -42 -10 -47 -2 -7
-53 -10 -139 -10 -75 0 -136 -3 -136 -7 0 -10 -120 -9 1155 -9 1277 0 1170 -1
1161 8 -4 4 -68 8 -143 8 l-136 0 -3 25 c-9 65 -34 109 -75 130 -18 10 -18 9
1 -28 23 -44 29 -107 12 -124 -15 -15 -19 -10 -25 27 -14 84 -35 127 -86 174
-74 68 -205 84 -301 38 -46 -22 -56 -24 -72 -13 -18 13 -17 15 17 36 84 52
119 154 77 229 -27 50 -43 52 -30 5 16 -61 2 -119 -41 -164 -34 -35 -78 -60
-208 -115 -23 -10 -56 -32 -74 -49 -18 -17 -29 -25 -25 -19 4 7 2 22 -5 34
-10 19 -8 25 12 40 13 10 58 33 99 50 146 60 200 112 200 190 0 34 -29 96 -57
121 -50 46 -140 56 -203 23 -34 -18 -90 -81 -91 -103 0 -12 -4 -10 -12 8 -45
96 -154 141 -244 100z m136 -45 c55 -47 64 -123 22 -192 -33 -53 -50 -57 -120
-22 -91 46 -115 110 -68 180 43 63 113 78 166 34z m362 8 c39 -23 63 -76 56
-125 -7 -50 -17 -61 -89 -97 -45 -23 -65 -28 -78 -21 -32 17 -62 69 -65 112
-9 111 88 183 176 131z m-175 -240 l34 -25 -42 -27 c-24 -15 -48 -30 -53 -33
-6 -4 -34 9 -63 27 l-53 33 35 27 c19 15 43 43 53 64 l18 37 19 -39 c10 -21
34 -50 52 -64z m-401 -110 c-20 -14 -35 -17 -35 -7 0 12 35 32 44 27 5 -4 1
-12 -9 -20z m-130 -23 c2 -4 -5 -27 -17 -51 -12 -24 -23 -68 -26 -96 -2 -29
-7 -54 -11 -54 -35 -7 -201 -2 -202 6 -10 91 61 185 155 205 35 7 94 1 101
-10z m348 -68 c28 -27 49 -82 43 -117 -3 -18 -11 -20 -79 -21 l-77 -1 -10 41
c-13 50 -36 98 -62 126 -19 20 -19 21 3 39 22 18 24 18 88 -11 37 -16 78 -41
94 -56z m427 48 c0 -4 -7 -13 -16 -21 -23 -19 -53 -81 -60 -126 l-6 -39 -79 0
-79 0 0 41 c0 64 29 99 117 143 72 37 79 38 100 25 13 -9 23 -19 23 -23z m329
-9 c43 -34 70 -84 73 -136 l3 -40 -102 0 c-57 0 -103 -1 -104 0 0 0 -3 23 -5
50 -3 28 -16 74 -30 103 -17 38 -20 54 -11 57 55 18 130 4 176 -34z m-214 9
c-3 -5 1 -20 9 -32 15 -25 43 -114 42 -137 -1 -8 -8 -15 -17 -16 -13 -2 -18 9
-22 56 -3 36 -13 69 -26 88 -20 28 -20 30 -4 40 23 13 26 13 18 1z m-845 -46
c-12 -18 -24 -58 -27 -87 -4 -38 -10 -54 -20 -54 -15 0 -14 36 0 92 3 11 6 22
6 25 3 19 43 70 51 65 7 -4 3 -20 -10 -41z m442 -38 c-2 -5 -4 -27 -6 -50 -2
-22 -4 -44 -5 -47 -1 -3 -8 -6 -16 -6 -10 0 -15 10 -15 31 0 17 -4 46 -9 64
-5 17 -6 32 -1 32 4 0 11 10 14 23 6 21 7 21 23 -8 10 -16 16 -34 15 -39z
m-353 -72 c1 -22 -23 -39 -40 -28 -10 6 -4 98 8 117 8 13 31 -51 32 -89z m697
62 c3 -13 4 -38 2 -57 -2 -26 -8 -34 -23 -34 -22 0 -24 15 -12 78 9 42 24 48
33 13z"/>
<path d="M194 1489 c-22 -5 -17 -7 23 -8 l53 -1 -1 -285 -2 -285 -51 0 c-28 0
-46 -4 -39 -8 14 -9 491 -7 501 2 8 9 10 176 2 176 -3 0 -13 -22 -23 -49 -33
-94 -83 -121 -224 -121 l-83 0 0 285 0 285 47 0 c25 0 43 3 40 6 -9 9 -205 11
-243 3z"/>
<path d="M648 1488 c-15 -4 -6 -6 27 -7 l51 -1 -1 -212 c0 -117 3 -229 8 -248
13 -49 52 -98 95 -116 57 -25 168 -23 218 4 40 20 82 72 89 110 2 9 4 117 4
240 l1 222 49 0 49 0 86 -141 c47 -77 86 -145 86 -151 0 -5 -37 -70 -81 -144
l-82 -134 -40 0 c-22 0 -37 -3 -34 -7 9 -9 167 -10 167 0 0 4 -16 7 -35 7 -19
0 -35 2 -35 5 0 8 131 228 144 242 9 10 29 -15 86 -108 41 -67 77 -126 78
-130 2 -5 -12 -9 -32 -9 -20 0 -36 -3 -36 -7 0 -6 608 -9 688 -4 16 1 18 181
1 181 -5 0 -8 -4 -5 -9 9 -14 -29 -93 -55 -118 -37 -34 -73 -43 -169 -43 -61
0 -89 4 -92 13 -2 6 -4 73 -4 147 l1 135 51 3 c64 4 98 -21 118 -88 l14 -45 2
63 c2 73 2 187 0 205 0 6 -10 -10 -20 -38 -23 -59 -45 -75 -114 -82 l-51 -5 0
131 0 131 88 0 c116 0 152 -16 181 -82 12 -26 23 -48 27 -48 3 0 6 32 7 70 2
50 -1 70 -10 71 -67 4 -591 3 -618 -2 -35 -6 -35 -6 8 -8 24 0 42 -5 40 -9
-12 -29 -124 -202 -130 -202 -5 0 -13 10 -18 23 -5 12 -31 58 -59 102 l-50 80
42 6 c23 3 35 7 27 8 -39 7 -353 5 -363 -1 -7 -4 9 -8 35 -8 l47 0 -2 -232
c-2 -213 -4 -236 -22 -267 -27 -46 -61 -69 -115 -79 -86 -16 -150 17 -169 85
-5 19 -10 137 -11 263 l-1 230 47 0 c26 0 44 3 41 7 -9 9 -219 10 -249 1z
m1142 -293 l0 -285 -52 0 c-47 0 -55 3 -69 28 -9 15 -55 91 -103 170 l-87 142
37 63 c21 34 53 86 71 115 l34 52 84 0 85 0 0 -285z"/>
<path d="M235 800 c-220 -6 -239 -11 -55 -15 66 -1 125 -3 130 -4 6 0 10 -13
10 -27 0 -38 28 -91 61 -115 34 -24 35 -24 9 26 -23 46 -27 110 -6 118 16 6
26 -12 26 -51 1 -39 32 -102 68 -139 65 -65 170 -92 263 -68 39 9 49 9 66 -5
19 -15 19 -16 -8 -43 -56 -55 -62 -150 -13 -204 l25 -28 -7 25 c-11 39 -11 93
0 120 25 62 49 81 175 141 69 34 134 68 144 77 19 17 22 16 31 -15 8 -26 -10
-40 -116 -87 -117 -51 -159 -78 -178 -116 -27 -53 -20 -122 17 -168 41 -51 77
-67 145 -65 76 1 131 38 163 108 l13 30 7 -26 c8 -34 60 -84 105 -103 98 -40
216 23 235 127 9 49 -16 117 -53 143 -29 20 -34 23 -152 77 -104 48 -116 58
-101 86 10 17 10 26 1 39 -7 9 1 3 17 -15 16 -18 64 -48 108 -68 122 -54 128
-57 164 -83 58 -42 88 -146 59 -204 -16 -33 10 -19 32 18 46 74 12 181 -75
234 -34 21 -35 23 -17 36 16 11 26 9 71 -13 163 -81 371 24 385 194 3 39 20
61 31 42 14 -21 6 -77 -15 -119 -25 -49 -12 -52 29 -5 30 34 37 52 45 105 l3
25 136 0 c74 0 139 3 143 8 4 4 -37 7 -92 7 -1511 4 -1862 4 -2029 0z m456
-72 c3 -31 16 -76 27 -99 26 -52 19 -62 -45 -61 -110 1 -193 80 -193 184 l0
33 103 0 102 0 6 -57z m59 17 c0 -24 10 -62 25 -90 13 -27 23 -51 20 -53 -17
-17 -64 72 -72 137 -4 40 -3 48 11 48 12 0 16 -10 16 -42z m118 26 c7 -21 -20
-113 -30 -103 -10 10 -19 101 -12 114 6 10 38 2 42 -11z m258 -20 c1 -75 -40
-119 -157 -169 -43 -19 -46 -19 -67 -2 l-21 18 21 23 c28 32 58 98 58 130 0
14 2 28 4 30 3 3 40 4 83 4 l78 0 1 -34z m88 23 c3 -9 4 -19 1 -23 -2 -5 0
-23 5 -40 7 -25 5 -39 -10 -63 l-19 -32 -11 29 c-9 25 -7 95 5 133 6 17 22 15
29 -4z m218 -27 c10 -46 33 -94 62 -125 l21 -24 -23 -18 c-22 -18 -24 -18 -80
7 -109 50 -142 87 -142 160 l0 39 77 -1 77 0 8 -38z m136 6 c2 -17 -1 -46 -6
-64 l-9 -34 -13 30 c-14 35 -22 84 -15 96 12 19 40 1 43 -28z m104 1 c-8 -74
-50 -162 -72 -149 -8 5 -7 12 2 23 23 28 38 71 38 111 0 21 3 41 7 45 14 14
28 -2 25 -30z m243 16 c-2 -55 -18 -100 -50 -137 -39 -46 -87 -67 -153 -66
-54 1 -72 15 -50 40 20 23 36 76 42 133 2 25 5 45 5 45 1 1 47 1 104 0 84 0
102 -3 102 -15z m-1046 -234 c-11 -12 -32 6 -35 29 -2 12 2 12 21 -3 15 -10
20 -21 14 -26z m367 -26 c21 -16 45 -30 52 -30 14 0 17 -20 3 -20 -19 0 -82
-75 -88 -104 l-7 -31 -8 32 c-5 18 -29 52 -53 76 l-45 42 45 24 c25 13 45 28
45 32 0 16 15 10 56 -21z m-127 -121 c35 -62 17 -150 -39 -182 -58 -35 -136
-12 -165 49 -35 74 -11 130 76 173 55 28 63 29 83 16 12 -8 33 -33 45 -56z
m324 28 c64 -36 83 -96 52 -161 -30 -63 -117 -86 -169 -45 -71 55 -70 164 2
226 28 24 42 21 115 -20z"/>
</g>
</svg>
